<svg width="70" height="71" viewBox="0 0 70 71" fill="none" xmlns="http://www.w3.org/2000/svg">
<g id="&#228;&#184;&#138;&#228;&#188;&#160;&#229;&#155;&#190;&#231;&#137;&#135;">
<path id="&#229;&#189;&#162;&#231;&#138;&#182;" fill-rule="evenodd" clip-rule="evenodd" d="M1.82652 6.01934H0V0.235352H5.78399V2.06188H1.82652V6.01934ZM0 19.5037H1.82652V10.5141H0V19.5037ZM1.82652 32.988H0V23.9984H1.82652V32.988ZM0 46.4723H1.82652V37.4827H0V46.4723ZM1.82652 59.9566H0V50.967H1.82652V59.9566ZM0 70.2354H5.78399V68.4088H1.82652V64.4514H0V70.2354ZM64.216 70.2354H70V64.4514H68.1735V68.4088H64.216V70.2354ZM50.7317 70.2354H59.7212V68.4088H50.7317V70.2354ZM46.2369 70.2354H37.2474V68.4088H46.2369V70.2354ZM23.7631 70.2354H32.7526V68.4088H23.7631V70.2354ZM19.2683 70.2354H10.2788V68.4088H19.2683V70.2354ZM50.7317 2.06188H59.7212V0.235352H50.7317V2.06188ZM46.2369 2.06188H37.2474V0.235352H46.2369V2.06188ZM23.7631 2.06188H32.7526V0.235352H23.7631V2.06188ZM19.2683 2.06188H10.2788V0.235352H19.2683V2.06188ZM68.1735 6.01934H70V0.235352H64.216V2.06188H68.1735V6.01934ZM70 59.9566H68.1735V50.967H70V59.9566ZM68.1735 46.4723H70V37.4827H68.1735V46.4723ZM70 32.988H68.1735V23.9984H70V32.988ZM68.1735 19.5037H70V10.5141H68.1735V19.5037Z" fill="#CCCCCC"/>
<path id="&#229;&#189;&#162;&#231;&#138;&#182;&#231;&#187;&#147;&#229;&#144;&#136;" fill-rule="evenodd" clip-rule="evenodd" d="M34 44.1152C34 44.7336 34.4479 45.2354 35 45.2354C35.5521 45.2354 36 44.7341 36 44.1152V36.2354H43.8799C44.4987 36.2354 45 35.7879 45 35.2354C45 34.6833 44.4983 34.2354 43.8799 34.2354H36V26.3555C36 25.7371 35.5521 25.2354 35 25.2354C34.4479 25.2354 34 25.7371 34 26.3555V34.2354H26.1201C25.5017 34.2354 25 34.6833 25 35.2354C25 35.7879 25.5017 36.2354 26.1201 36.2354H34V44.1152Z" fill="#CCCCCC"/>
</g>
</svg>
