<?xml version="1.0" encoding="UTF-8"?>
<svg width="20px" height="20px" viewBox="0 0 20 20" version="1.1" xmlns="http://www.w3.org/2000/svg" xmlns:xlink="http://www.w3.org/1999/xlink">
    <title>切片</title>
    <g id="页面-1" stroke="none" stroke-width="1" fill="none" fill-rule="evenodd">
        <g id="选择让他" transform="translate(-30.000000, -131.000000)" fill-rule="nonzero">
            <g id="编组-2" transform="translate(15.000000, 92.000000)">
                <g id="勾选" transform="translate(15.000000, 39.000000)">
                    <rect id="矩形" fill="#000000" opacity="0" x="0" y="0" width="20" height="20"></rect>
                    <path d="M10,0 C4.4771525,0 0,4.4771525 0,10 C0,15.5228475 4.4771525,20 10,20 C15.5228475,20 20,15.5228475 20,10 C20,7.3478351 18.9464316,4.80429597 17.0710678,2.92893219 C15.195704,1.0535684 12.6521649,0 10,0 Z M8.45110535,14.6326069 C8.30206094,14.8415386 8.06793429,14.973498 7.81201709,14.9928125 C7.55609989,15.012127 7.3048197,14.9168021 7.12610535,14.7326069 C7.10211035,14.7008462 7.0803896,14.6674297 7.06110535,14.6326069 L3.76110535,11.1776069 C3.42142246,10.8204802 3.42142246,10.2597337 3.76110535,9.90260694 C3.92062888,9.73475936 4.1420442,9.63973128 4.37360535,9.63973128 C4.6051665,9.63973128 4.82658182,9.73475936 4.98610535,9.90260694 L7.75110535,12.8076069 L15.0061053,5.26760694 C15.1656289,5.09975936 15.3870442,5.00473128 15.6186053,5.00473128 C15.8501665,5.00473128 16.0715818,5.09975936 16.2311053,5.26760694 C16.5733,5.61873791 16.5820738,6.17587497 16.2511053,6.53760694 L8.45110535,14.6326069 Z" id="形状" fill="#01C591"></path>
                </g>
            </g>
        </g>
    </g>
</svg>