<svg width="16" height="16" viewBox="0 0 16 16" fill="none" xmlns="http://www.w3.org/2000/svg">
<g id="icon_&#232;&#167;&#163;&#231;&#173;&#148;">
<rect id="&#231;&#159;&#169;&#229;&#189;&#162;" opacity="0.01" width="16" height="16" fill="black"/>
<path id="&#239;&#188;&#159;" d="M8.10201 3.63196C8.87001 3.63196 9.48201 3.83596 9.95001 4.26796C10.394 4.67596 10.622 5.23996 10.622 5.95996C10.622 6.49996 10.466 6.96796 10.166 7.36396C10.046 7.50796 9.72201 7.81996 9.19401 8.28796C8.93001 8.51596 8.75001 8.73196 8.63001 8.94796C8.47401 9.21196 8.40201 9.49996 8.40201 9.82396V10.1H7.44201V9.82396C7.44201 9.42796 7.51401 9.07996 7.65801 8.77996C7.82601 8.41996 8.22201 7.96396 8.87001 7.38796C9.06201 7.19596 9.20601 7.05196 9.27801 6.95596C9.51801 6.65596 9.63801 6.34396 9.63801 6.00796C9.63801 5.52796 9.49401 5.15596 9.23001 4.89196C8.95401 4.60396 8.55801 4.47196 8.05401 4.47196C7.45401 4.47196 7.01001 4.66396 6.72201 5.05996C6.45801 5.39596 6.32601 5.85196 6.32601 6.43996H5.37801C5.37801 5.59996 5.60601 4.92796 6.08601 4.42396C6.56601 3.89596 7.23801 3.63196 8.10201 3.63196ZM7.92201 10.94C8.12601 10.94 8.30601 11 8.45001 11.144C8.58201 11.276 8.65401 11.444 8.65401 11.648C8.65401 11.864 8.58201 12.032 8.43801 12.164C8.29401 12.296 8.12601 12.368 7.92201 12.368C7.71801 12.368 7.55001 12.296 7.40601 12.164C7.26201 12.02 7.20201 11.852 7.20201 11.648C7.20201 11.444 7.26201 11.276 7.40601 11.144C7.55001 11 7.71801 10.94 7.92201 10.94Z" fill="#B3B6BB"/>
<path id="&#229;&#189;&#162;&#231;&#138;&#182;" fill-rule="evenodd" clip-rule="evenodd" d="M15.5556 8.00001C15.5556 12.1728 12.1728 15.5556 8.00001 15.5556C3.8272 15.5556 0.444458 12.1728 0.444458 8.00001C0.444458 3.8272 3.8272 0.444458 8.00001 0.444458C12.1728 0.444458 15.5556 3.8272 15.5556 8.00001ZM2.22651 11.3334C3.4174 13.396 5.61824 14.6667 8.00001 14.6667C11.6819 14.6667 14.6667 11.6819 14.6667 8.00002C14.6667 4.31812 11.6819 1.33335 8.00001 1.33335C5.61824 1.33335 3.4174 2.60401 2.22651 4.66669C1.03563 6.72936 1.03563 9.27068 2.22651 11.3334Z" fill="#B3B6BB"/>
</g>
</svg>
