<svg width="16" height="17" viewBox="0 0 16 17" fill="none" xmlns="http://www.w3.org/2000/svg">
<g id="bg-close&#229;&#164;&#135;&#228;&#187;&#189; 3">
<rect id="&#231;&#159;&#169;&#229;&#189;&#162;" opacity="0.01" y="0.235352" width="16" height="16" fill="black"/>
<path id="&#229;&#189;&#162;&#231;&#138;&#182;" d="M8 0.235352C3.58172 0.235352 0 3.81707 0 8.23535C0 12.6536 3.58172 16.2354 8 16.2354C12.4183 16.2354 16 12.6536 16 8.23535C16 6.11362 15.1571 4.07879 13.6569 2.5785C12.1566 1.07821 10.1217 0.235352 8 0.235352Z" fill="#5E5C5C"/>
<path id="&#232;&#183;&#175;&#229;&#190;&#132;" d="M11.2067 10.6553C11.3484 10.7982 11.4031 11.0059 11.3502 11.2001C11.2973 11.3943 11.1448 11.5455 10.9502 11.5968C10.7556 11.648 10.5484 11.5916 10.4067 11.4487L8.00002 9.03534L5.58669 11.4487C5.36761 11.6696 5.01093 11.6711 4.79002 11.452C4.5691 11.2329 4.56761 10.8763 4.78669 10.6553L7.20669 8.23534L4.79335 5.81534C4.57428 5.59443 4.57577 5.23775 4.79669 5.01868C5.0176 4.7996 5.37428 4.8011 5.59335 5.02201L8.00002 7.43534L10.4134 5.01534C10.5551 4.87244 10.7623 4.81599 10.9569 4.86727C11.1515 4.91854 11.304 5.06975 11.3569 5.26393C11.4098 5.45811 11.3551 5.66577 11.2134 5.80868L8.79335 8.23534L11.2067 10.6553Z" fill="white"/>
</g>
</svg>
