<?xml version="1.0" standalone="no"?>
<!DOCTYPE svg PUBLIC "-//W3C//DTD SVG 1.1//EN" "http://www.w3.org/Graphics/SVG/1.1/DTD/svg11.dtd" >
<!--
2013-9-30: Created.
-->
<svg>
<metadata>
Created by iconfont
</metadata>
<defs>

<font id="iconfont" horiz-adv-x="1024" >
  <font-face
    font-family="iconfont"
    font-weight="500"
    font-stretch="normal"
    units-per-em="1024"
    ascent="896"
    descent="-128"
  />
    <missing-glyph />
    
    <glyph glyph-name="x" unicode="x" horiz-adv-x="1001"
d="M281 543q-27 -1 -53 -1h-83q-18 0 -36.5 -6t-32.5 -18.5t-23 -32t-9 -45.5v-76h912v41q0 16 -0.5 30t-0.5 18q0 13 -5 29t-17 29.5t-31.5 22.5t-49.5 9h-133v-97h-438v97zM955 310v-52q0 -23 0.5 -52t0.5 -58t-10.5 -47.5t-26 -30t-33 -16t-31.5 -4.5q-14 -1 -29.5 -0.5
t-29.5 0.5h-32l-45 128h-439l-44 -128h-29h-34q-20 0 -45 1q-25 0 -41 9.5t-25.5 23t-13.5 29.5t-4 30v167h911zM163 247q-12 0 -21 -8.5t-9 -21.5t9 -21.5t21 -8.5q13 0 22 8.5t9 21.5t-9 21.5t-22 8.5zM316 123q-8 -26 -14 -48q-5 -19 -10.5 -37t-7.5 -25t-3 -15t1 -14.5
t9.5 -10.5t21.5 -4h37h67h81h80h64h36q23 0 34 12t2 38q-5 13 -9.5 30.5t-9.5 34.5q-5 19 -11 39h-368zM336 498v228q0 11 2.5 23t10 21.5t20.5 15.5t34 6h188q31 0 51.5 -14.5t20.5 -52.5v-227h-327z" />
    

    
    <glyph glyph-name="clear" unicode="&#58886;" d="M512.186242 832.090435c-247.563352 0-448.255187-200.687742-448.255187-448.251094 0-247.567445 200.690812-448.258257 448.255187-448.258257s448.255187 200.690812 448.255187 448.258257C960.441429 631.402693 759.749594 832.090435 512.186242 832.090435zM683.875532 264.976186c7.29515-7.287987 7.29515-19.11843 0-26.41358l-26.41358-26.41358c-7.29515-7.29208-19.1215-7.29208-26.41358 0L512.186242 331.01320499999997 393.32411 212.14902700000005c-7.29515-7.29208-19.11843-7.29208-26.41358 0l-26.41358 26.41358c-7.29515 7.29515-7.29515 19.125593 0 26.41358l118.863155 118.863155L340.496951 502.704542c-7.29515 7.29208-7.29515 19.114336 0 26.41358l26.41358 26.409486c7.29515 7.29515 19.11843 7.29515 26.41358 0L512.186242 436.665477l118.862131 118.862131c7.29208 7.29515 19.11843 7.29515 26.41358 0l26.41358-26.409486c7.29515-7.299243 7.29515-19.1215 0-26.41358L565.011354 383.839341 683.875532 264.976186z"  horiz-adv-x="1024" />

    
    <glyph glyph-name="down" unicode="&#58964;" d="M46.710346 572.632171l465.290166-465.290165 465.290165 465.290165H46.710346z"  horiz-adv-x="1024" />

    
    <glyph glyph-name="evaluatestar" unicode="&#58965;" d="M534.19193 804.829558l138.350998-241.533009 271.048229-57.760518c19.312858-4.115738 26.938536-27.730575 13.71435-42.476417L771.76679 256.030443l29.16525-277.234115c2.083451-19.742646-17.885346-34.343179-35.908838-26.250874L511.997442 66.128349 258.972705-47.454546c-18.020422-8.091282-37.989219 6.508227-35.905768 26.250874l29.16525 277.234115L66.691423 463.060637c-13.221116 14.745842-5.598508 38.360679 13.71435 42.476417l271.045159 57.760518 138.350998 241.533009c9.853415 17.200754 34.537608 17.200754 44.39-0.001023z"  horiz-adv-x="1024" />

    
    <glyph glyph-name="delet" unicode="&#58966;" d="M782.431687 28.168806c0-19.800975-36.4604-56.932664-56.932663-56.932664H298.497906c-20.473287 0-56.932664 37.131689-56.932663 56.932664V569.03218h-56.930617v-540.863374c0-53.952796 58.071603-113.866351 113.86328-113.866351h427.000094c55.791677 0 113.863281 59.913555 113.863281 113.866351V569.03218H782.430664v-540.863374z m-86.364996 654.729725c-3.992941 94.841042-85.019349 170.799014-184.057993 170.799014-99.04683 0-180.074262-75.958996-184.067202-170.799014H127.701962v-56.932664h768.596076v56.932664H696.066691z m-303.997666 0c3.927449 60.670801 56.220443 108.86136 119.939673 108.86136 63.7223 0 116.004037-48.191582 119.930463-108.86136H392.069025z m-8.1711-199.265346V85.101469h56.935734V483.633185h-56.935734z m199.268416 0V85.101469H640.099005V483.633185h-56.932664z"  horiz-adv-x="1024" />

    
    <glyph glyph-name="edit" unicode="&#58967;" d="M927.952992 699.136354l-96.328929 96.853885c-21.757536 21.877263-59.851133 18.691711-81.691557-3.227508l-323.958277-322.69654-68.292385-247.527536 246.157329 68.686358L927.952992 617.149061c22.460548 22.583344 22.468734 59.343573 0 81.987293zM570.792523 348.18019l-122.039498-34.059724 33.864272 122.734322 203.212239 204.349132 88.180341-88.681762-203.217354-204.341968z m248.051469 249.422699l-88.179319 88.685855 60.192918 60.529585 88.194668-88.674598-60.208267-60.540842z m-13.005199-563.382251c0-17.5804-10.522658-50.480718-28.005844-50.480718H219.886501c-17.486256 0-55.797817 38.216393-55.797817 55.794747V709.07061c0 17.5804 38.311561 55.794747 55.797817 55.794747h390.559137V820.660104H213.983047c-52.452629 0-105.686041-53.529147-105.68604-106.274441v-680.164001c0-52.742225 53.233412-106.274442 105.68604-106.274442h563.849902c52.449559 0 83.692121 58.846246 83.692121 111.589494v306.869063h-55.794747l0.10847-312.185139z"  horiz-adv-x="1024" />

    
    <glyph glyph-name="location" unicode="&#58968;" d="M512.000512 834.951599c-249.053286 0-450.952622-201.896266-450.952622-450.949552 0-249.056356 201.898313-450.952622 450.952622-450.952623S962.95211 134.944668 962.95211 384.002047c0 249.053286-201.898313 450.949552-450.951598 450.949552z m25.052582-856.041684V183.577295h-50.106188v-204.668403c-204.192565 12.435217-367.606379 175.843914-380.042619 380.036479H311.576783v50.108235H106.904287c12.435217 204.192565 175.850054 367.600239 380.042619 380.035456V584.423729h50.106188V789.090085c204.192565-12.435217 367.607402-175.842891 380.042619-380.035456H712.423217v-50.108235h204.672496c-12.43624-204.192565-175.851077-367.601262-380.042619-380.036479z"  horiz-adv-x="1024" />

    
    <glyph glyph-name="collect" unicode="&#58969;" d="M512.004605 693.050752l89.176019-180.659593 14.596439-29.581736 32.642445-4.746094 199.372793-28.962635-144.259568-140.623761-23.635303-23.020297 5.577018-32.516577 34.062794-198.577685-178.331571 93.743035-29.201066 15.361872-29.201066-15.361872-178.331571-93.743035 34.062793 198.577685 5.577019 32.500205-23.622 23.036669-144.270824 140.622737 199.370746 28.962636 32.644491 4.746094 14.594393 29.581735 89.176019 180.660617m0 122.784464c-5.934153 0-11.072173-3.432169-13.533225-8.412601L366.561072 540.169829 71.772138 497.336278c-5.52483-0.803295-10.397814-4.641717-12.244881-10.314926a15.167444 15.167444 0 0 1 3.840468-15.552208l213.31227-207.925587-50.342572-293.527196a15.19405 15.19405 0 0 1 6.045693-14.870686 15.211447 15.211447 0 0 1 8.927324-2.918469 15.124466 15.124466 0 0 1 7.089465 1.752923l263.6047 138.584312L775.763824-46.096618a15.2094 15.2094 0 0 1 7.057743-1.738598c3.075035 0 6.189979 0.941442 8.864902 2.882654a15.139815 15.139815 0 0 1 6.016017 14.786774l-50.374295 293.709345 213.304084 207.909214a15.193027 15.193027 0 0 1 3.840468 15.568581c-1.849114 5.67321-6.721075 9.511631-12.258184 10.314926l-294.767444 42.833551L525.537829 807.422615c-2.462075 4.980431-7.599072 8.4126-13.533224 8.412601z"  horiz-adv-x="1024" />

    
    <glyph glyph-name="exchangegift" unicode="&#58970;" d="M641.480468 617.535871c-2.13871 0.587378-4.194532 0.876973-6.320962 0.876973-27.519774 0-57.361429-48.864918-74.978669-87.556125h20.13355c60.289108 7.951089 85.768409 30.913057 88.536452 51.154054 2.12336 15.59621-9.393951 30.534434-27.370371 35.525098zM403.723459 618.411821c-2.115174 0-4.181229-0.288572-6.320962-0.876974-17.97642-4.990664-29.492708-19.928888-27.369347-35.526121 2.768043-20.240997 28.247344-43.201941 88.536452-51.154053h20.133549c-17.618263 38.692231-47.458895 87.557148-74.979692 87.557148zM489.674017 173.647131h44.651966V292.716994h178.603771v44.650943H534.325983v89.301885h-44.651966v-89.301885H311.070246v-44.650943h178.603771zM512.000512 845.395462c-254.822686 0-461.394439-206.574822-461.394439-461.395462S257.177825-77.394439 512.000512-77.394439c254.82064 0 461.394439 206.573799 461.394438 461.394439S766.820128 845.395462 512.000512 845.395462zM727.813742 143.880177H296.186258V456.437799h431.627484V143.880177z m29.766954 342.325599H266.419304v44.64992h95.537913c-20.451798 17.803481-25.816992 37.033451-27.091008 46.370097-4.54041 33.376155 17.757432 64.709791 53.04103 74.507948a59.118446 59.118446 0 0 0 15.81622 2.172479c57.740052 0 98.841146-86.518492 113.633037-123.049501h4.169973c14.791891 36.531008 55.892985 123.0495 113.633037 123.049501 5.303796 0 10.617825-0.729617 15.81622-2.172479 35.283598-9.797134 57.582463-41.130769 53.041031-74.507948-1.274016-9.335622-6.639211-28.566616-27.089985-46.370097h80.653924v-44.64992z"  horiz-adv-x="1024" />

    
    <glyph glyph-name="feedback" unicode="&#58971;" d="M671.984203 528.729266H367.271246c-8.414647 0-15.236006-6.821359-15.236006-15.23703v-15.236006c0-8.414647 6.821359-15.234983 15.236006-15.234982h304.711933c8.414647 0 15.236006 6.820336 15.236006 15.234982v15.236006c0 8.414647-6.820336 15.237029-15.234982 15.23703zM595.805196 437.315276H367.271246c-8.414647 0-15.236006-6.821359-15.236006-15.237029v-15.234983c0-8.414647 6.821359-15.237029 15.236006-15.237029h228.53395c8.414647 0 15.236006 6.821359 15.236006 15.237029v15.234983c0 8.41567-6.820336 15.237029-15.236006 15.237029zM511.999488 856.304929c-260.845867 0-472.302883-211.460086-472.302882-472.305952s211.457016-472.303906 472.302882-472.303906c260.84689 0 472.303906 211.458039 472.303906 472.303906S772.846378 856.304929 511.999488 856.304929zM275.857257 117.367337V239.252315h121.884978L275.857257 117.367337z m502.775918 213.297944c0-37.998429-53.829999-60.941977-91.41399-60.941977H275.857257V559.200254c0 37.996382 38.738279 60.941977 76.177983 60.941978h350.418928c37.582967 0 76.177983-38.180578 76.177983-76.177984v-213.298967z"  horiz-adv-x="1024" />

    
    <glyph glyph-name="logistics" unicode="&#58972;" d="M977.595622 171.743782h-62.899562V363.432569H449.099926V712.350306H280.302499c-34.367739-18.918885-160.125931-175.144996-170.998559-212.859968v-327.746556H46.404378V501.517507C46.404378 545.743778 215.837278 775.249869 276.157085 775.249869h235.843427v-348.917738H977.595622v-254.588349zM109.027647 498.466008zM977.595622 478.748944h-62.899562V697.280076c-4.197602 5.364171-16.666588 15.07023-31.450293 15.07023H595.866594V775.249869h287.379173c50.809199 0 94.349855-40.356127 94.349855-73.383335v-223.11759zM301.423539-7.249869c-75.143421 0-136.282896 61.138452-136.282896 136.282897S226.279095 265.315924 301.423539 265.315924s136.282896-61.138452 136.282896-136.282896-61.139475-136.282896-136.282896-136.282897z m0 209.666231c-40.458457 0-73.383334-32.923854-73.383334-73.383334 0-40.458457 32.923854-73.383334 73.383334-73.383334s73.383334 32.923854 73.383334 73.383334c-0.001023 40.458457-32.924877 73.383334-73.383334 73.383334zM722.576461-7.249869c-75.143421 0-136.282896 61.138452-136.282896 136.282897S647.43304 265.315924 722.576461 265.315924s136.282896-61.138452 136.282896-136.282896-61.138452-136.282896-136.282896-136.282897z m0 209.666231c-40.458457 0-73.383334-32.923854-73.383334-73.383334 0-40.458457 32.923854-73.383334 73.383334-73.383334s73.383334 32.923854 73.383334 73.383334c0 40.458457-32.923854 73.383334-73.383334 73.383334zM427.222663 160.482297h169.554674v-62.899562H427.222663z"  horiz-adv-x="1024" />

    
    <glyph glyph-name="mea" unicode="&#58973;" d="M511.488859 772.722302c107.777679 0 195.473997-87.692225 195.473996-195.486276 0-65.85794-32.996508-126.906342-88.243787-163.287947l-104.719016-68.961628 118.243031-41.653679c100.552114-35.421744 181.567265-113.25032 217.275535-208.497614 5.750981-21.817911 9.735735-50.402947-1.802042-67.648726-10.283204-15.359826-40.303938-30.786167-46.013986-31.907711H221.274104c-6.638187 1.281179-35.892465 16.782222-46.01194 31.907711-11.540847 17.246803-7.553023 45.830815-1.804089 67.648726 35.68985 95.241154 116.725468 173.069731 217.23358 208.497614l118.184703 41.665959-104.640222 68.935022c-55.245232 36.395932-88.221274 97.444333-88.221274 163.302273 0.001023 107.794052 87.697341 195.486276 195.473997 195.486276m0 62.184271c-142.292773 0-257.662361-115.352191-257.662361-257.670547 0-90.031503 46.276976-169.171957 116.200512-215.239156-117.819382-41.540092-213.653031-132.756583-255.863389-248.221338-43.461861-157.771303 107.10946-180.682106 107.10946-180.682105H822.431703s129.842207 22.910802 86.380346 180.682105c-42.209334 115.464755-138.040936 206.695572-255.902274 248.221338 69.962421 46.067198 116.242468 125.208677 116.242468 215.239156 0 142.318356-115.411543 257.670547-257.663384 257.670547z"  horiz-adv-x="1024" />

    
    <glyph glyph-name="meb" unicode="&#58974;" d="M511.488859 834.906573c-142.292773 0-257.662361-115.352191-257.662361-257.670547 0-90.031503 46.276976-169.171957 116.200512-215.239156-117.819382-41.540092-213.653031-132.756583-255.863389-248.221338-43.461861-157.771303 107.10946-180.682106 107.10946-180.682105H822.431703s129.842207 22.910802 86.380346 180.682105c-42.209334 115.464755-138.040936 206.695572-255.902274 248.221338 69.962421 46.067198 116.242468 125.208677 116.242468 215.239156 0 142.318356-115.411543 257.670547-257.663384 257.670547z"  horiz-adv-x="1024" />

    
    <glyph glyph-name="myadress" unicode="&#58975;" d="M512.000512 851.627397c-258.264065 0-467.627397-209.365378-467.627397-467.62842s209.362308-467.627397 467.627397-467.627397c258.263042 0 467.627397 209.364355 467.627396 467.627397S770.26253 851.627397 512.000512 851.627397z m15.103999-746.694254H376.256898V301.034427h150.847613V104.933143z m235.488339 313.449945l-56.731072-64.494896c-11.078313-12.624529-41.232077-22.683628-58.080813-22.683629l-321.726446 0.527003c-21.710464 0-40.307008 23.017226-40.307008 44.727691v135.762033c0 21.708418 18.514679 47.190789 40.22412 47.190789l50.284244-0.289596V663.06788h150.847613v-104.813161l135.763056-0.779759c16.836457 0 31.906687-6.121418 43.005467-18.765389l56.720839-64.462151c13.781888-15.678074 13.781888-40.207747 0-55.864332z"  horiz-adv-x="1024" />

    
    <glyph glyph-name="myfavorite" unicode="&#58976;" d="M512.000512 851.534276c-258.210853 0-467.534276-209.323423-467.534276-467.535299s209.322399-467.534276 467.534276-467.534276S979.533764 125.788124 979.533764 384 770.211365 851.534276 512.000512 851.534276z m253.708305-388.512525l-120.627334-116.111484 28.486798-164.028821a8.407484 8.407484 0 0 0-3.40147-8.261151 8.589632 8.589632 0 0 0-5.013177-1.608637 8.679683 8.679683 0 0 0-3.990894 0.968048L512.001535 251.420449 362.927311 174.026778a8.652054 8.652054 0 0 0-9.057283 0.649799 8.439206 8.439206 0 0 0-3.418866 8.306177l28.469402 163.927513-120.630405 116.124787c-2.263553 2.176572-3.211135 5.510504-2.171455 8.680707 1.044796 3.172249 3.799536 5.317099 6.924713 5.761214l166.708859 23.922852 74.595952 149.255349a8.547677 8.547677 0 0 0 7.65433 4.701068 8.544607 8.544607 0 0 0 7.652284-4.701068l74.596975-149.255349 166.697603-23.922852c3.130294-0.444115 5.887081-2.588965 6.931876-5.761214a8.408507 8.408507 0 0 0-2.172479-8.69401z"  horiz-adv-x="1024" />

    
    <glyph glyph-name="MyRating" unicode="&#58977;" d="M512.000512 838.859605C260.78805 838.859605 57.14193 635.210415 57.14193 383.998977s203.64612-454.858582 454.858582-454.858582c251.210415 0 454.858582 203.648167 454.858582 454.858582S763.210927 838.859605 512.000512 838.859605zM306.41011 222.455767v82.506109L533.3037 531.856489l82.505086-82.507132-226.892567-226.89359h-82.506109z m337.63681 0.162706H453.299575v44.018539h190.747345v-44.018539z m-7.611351 247.356644l-82.506109 82.507132 51.565422 51.564399 82.507133-82.505085-51.566446-51.566446z"  horiz-adv-x="1024" />

    
    <glyph glyph-name="ordercompletion" unicode="&#58978;" d="M773.174859 31.085228c0-16.330944-27.107381-43.438325-43.438324-43.438325H230.196311c-16.330944 0-21.718651 5.38873-21.718651 21.718651v629.855198c0 16.33299 15.909341 23.202445 32.240285 23.202445h497.590826c16.330944 0 34.868135-6.869455 34.868135-23.202445v-152.034648h65.157999V639.220752c0 52.263317-47.77612 88.360444-100.025111 88.360444h-497.592872c-52.252061 0-97.397261-36.097126-97.397261-88.360444v-629.855198c0-52.260248 34.624589-86.87665 86.87665-86.876649h499.540224c52.250014 0 108.5953 56.335053 108.5953 108.5953V204.837504h-65.157999v-173.752276zM382.229936 834.693726H251.914962v-65.156976h130.314974V834.693726z m347.506599 0H599.42156v-65.156976h130.314975V834.693726z m-247.40474-465.096761l-47.871287-44.202734L600.323093 145.725198a32.598442 32.598442 0 0 1 23.88192-10.477632h0.054235a32.609699 32.609699 0 0 1 23.860431 10.392698l317.897234 342.055446-47.720862 44.372604-293.950845-316.308039-142.013411 153.83669z"  horiz-adv-x="1024" />

    
    <glyph glyph-name="onsale" unicode="&#58979;" d="M864.338139 49.762613H159.661861c-54.779627 0-99.345636 44.567032-99.345635 99.346659V334.667431l42.97886-15.196097a68.260663 68.260663 0 0 1 22.811542-3.905959c37.734416 0 68.433602 30.699186 68.433602 68.433602s-30.699186 68.433602-68.433602 68.433602a68.279083 68.279083 0 0 1-22.811542-3.906983l-42.97886-15.195074V618.890728c0 54.779627 44.566008 99.345636 99.345635 99.345636h704.676278c54.779627 0 99.345636-44.567032 99.345635-99.345636v-185.560206l-42.97886 15.195074a68.2535 68.2535 0 0 1-22.810518 3.908006c-37.734416 0-68.434625-30.699186-68.434626-68.433602s30.700209-68.433602 68.434626-68.433602a68.25964 68.25964 0 0 1 22.810518 3.90596l42.97886 15.196097V149.109272c0-54.779627-44.564985-99.346659-99.345635-99.346659zM124.784516 251.102201v-101.992929c0-19.232017 15.646352-34.878368 34.877345-34.878369h704.676278c19.230993 0 34.877345 15.646352 34.877345 34.878369v101.992929c-0.441045-0.004093-0.880043-0.00614-1.321088-0.00614-73.28305 0-132.902916 59.619866-132.902916 132.901892s59.619866 132.901893 132.902916 132.901893c0.441045 0 0.880043-0.002047 1.321088-0.00614v101.995999c0 19.232017-15.646352 34.877345-34.877345 34.877345H159.661861c-19.230993 0-34.877345-15.646352-34.877345-34.877345v-101.995999c0.441045 0.004093 0.881067 0.00614 1.322112 0.00614 73.28305 0 132.901893-59.619866 132.901892-132.901893s-59.619866-132.901893-132.901892-132.901892c-0.442068 0.001023-0.88209 0.002047-1.322112 0.00614zM479.766366 686.003242h64.468291v-604.00546h-64.468291z"  horiz-adv-x="1024" />

    
    <glyph glyph-name="obligation" unicode="&#58980;" d="M826.666144 132.266675c0-45.582151-38.328957-83.911108-83.911108-83.911108H197.333856c-33.119305 0-83.911108 47.677882-83.911109 83.911108v503.46665c0 26.568099 38.328957 83.909062 83.911109 83.909061l545.42118 0.002047c45.582151 0 83.911108-38.331004 83.911108-83.911108v-41.955554h62.933332v41.955554c0 80.284511-45.580105 146.844439-125.866663 146.844439H197.333856c-80.284511 0-146.844439-66.559928-146.84444-146.844439v-503.46665c0-80.286558 66.559928-146.844439 146.84444-146.844439h545.42118c80.286558 0 146.844439 66.557882 146.84444 146.844439v41.955554h-62.933332v-41.955554z m-293.687855 419.555542v-335.644434h440.533318v335.644434h-440.533318z m377.598964-272.711102h-314.666656v209.77777h314.666656v-209.77777z m-221.189682 70.657246c18.909675 0 34.233686 15.301498 34.233686 34.233686 0 18.888186-15.32401 34.229592-34.233686 34.229592-18.917862 0-34.241872-15.341407-34.241872-34.229592 0-18.932188 15.325034-34.233686 34.241872-34.233686z"  horiz-adv-x="1024" />

    
    <glyph glyph-name="order" unicode="&#58981;" d="M797.78128-82.023876H226.20644c-53.735855 0-97.447403 43.711548-97.447403 97.447403v737.13862c0 53.735855 43.711548 97.447403 97.447403 97.447403h395.257136v-64.965618H226.20644c-17.911952 0-32.482809-14.570857-32.482809-32.482808v-737.13862c0-17.911952 14.570857-32.482809 32.482809-32.482809h571.57484c17.911952 0 32.482809 14.570857 32.482809 32.482809V576.234209h64.965617v-560.810682c-0.001023-53.735855-43.712571-97.447403-97.448426-97.447403zM862.757131 543.751401H686.439426c-53.735855 0-97.447403 43.711548-97.447403 97.447402V817.527764a32.464389 32.464389 0 0 0 20.047592 30.008454c12.138458 5.064342 26.128077 2.242064 35.401278-7.042393L885.723192 599.20027a32.465412 32.465412 0 0 0 7.042393-35.401278c-5.02341-12.138458-16.876366-20.047592-30.008454-20.047591zM653.956617 739.112833v-97.913006c0-17.911952 14.570857-32.482809 32.482809-32.482809h97.902774L653.956617 739.112833zM306.27094 373.175467H717.71678v-64.965617H306.27094zM306.27094 209.578482H717.71678v-64.965618H306.27094z"  horiz-adv-x="1024" />

    
    <glyph glyph-name="QRcode" unicode="&#58982;" d="M840.39789 841.416847H652.741953v-70.37072h187.655937c31.224142 0 46.914496-15.71389 46.914496-46.916543v-187.6631h70.370721V724.129584c0 70.007447-47.279816 117.287263-117.285217 117.287263zM136.687614 724.129584c0 31.202653 15.690354 46.916543 46.914496 46.916543h187.655937V841.416847H183.60211c-70.0054 0-117.285217-47.279816-117.285217-117.287263v-187.6631h70.370721V724.129584z m750.624772-656.803967c0-31.195489-15.690354-70.366627-46.914496-70.366627H652.741953v-70.375837h187.655937c70.0054 0 117.285217 70.739111 117.285217 140.742464V254.988718h-70.370721v-187.663101z m-750.624772 0V254.988718H66.316893v-187.663101c0-70.003354 47.279816-140.742465 117.285217-140.742464h187.655937v70.375837H183.60211c-31.224142 0-46.914496 39.171138-46.914496 70.366627zM183.60211 348.828966h656.796804v70.366627H183.60211v-70.366627z"  horiz-adv-x="1024" />

    
    <glyph glyph-name="prescriptionmedicin" unicode="&#58983;" d="M457.067388 474.385567l17.531282 93.501534h-93.501534l-18.699897-56.100716h-37.400819l12.46694 49.867757s-37.578874-10.587126-105.968474 12.46694c0 0-2.841721-32.081673-41.58614-99.735515H50.723753V193.878918h829.05096l93.501534 280.505625H457.067388z m224.839815-148.540058l-0.833995 10.211572c1.870604 0.704035 3.690042 2.112104 5.459339 4.225232 12.211113 11.852956 23.124673 24.938995 32.741705 39.259142l10.271948-4.224208c-11.334139-15.492856-22.157649-28.052916-32.465413-37.675064a910.857127 910.857127 0 0 1 25.552979 3.168156c7.619538 8.918114 12.855796 15.198144 15.706727 18.838043l10.621918-4.225231c-21.313422-25.235754-38.626739-43.25106-51.935859-54.047963 12.465916 1.994424 26.050306 5.0449 40.755216 9.154497l-1.909489-10.914584c-19.063171-5.047969-37.518498-8.626471-55.369052-10.739599l-1.378394 11.091616c2.378164 0.938372 4.459568 2.170432 6.240122 3.697206 7.237845 5.396917 16.457834 14.142092 27.667129 26.231431l-31.124881-4.050246z m-226.27449-92.680843l-2.848884-11.530614-21.645996 0.50142-43.711548 0.50142c-42.280966 1.11438-72.326259 5.764284-90.137927 13.953804-17.812691 8.187473-29.677926 15.903202-35.598776 23.143092l-6.921643 7.853876c-14.156418-11.362792-27.898397-20.524452-41.229006-27.488052-13.329587-6.960529-29.502941-13.895475-48.521087-20.804838-2.612501 14.149255-5.124717 23.172769-7.538697 27.070542l-7.429203 12.533455c14.314007 2.785439 28.02631 6.712889 41.134863 11.780301 13.109576 5.068436 27.559683 13.84124 43.346227 26.318412-4.329609 10.026354-7.970532 19.383466-10.929934 28.073382-2.957355 8.689916-4.696975 17.545608-5.217838 26.570145l-1.594311 18.38165c-5.516644-6.241145-14.428617-15.765055-26.737968-28.574803-1.62808 3.341095-3.685949 7.379061-6.174629 12.114922-2.488681 4.733814-8.154727 12.170181-16.998139 22.309099 8.704243 6.125511 17.394159 14.062274 26.068725 23.812335 8.673543 9.746992 17.871019 23.895223 27.590382 42.443671 9.716292 18.548448 17.023722 33.754778 21.920242 45.618991 4.89652 11.864212 8.375761 21.472034 10.438746 28.825512l4.691859 16.375969c15.004739-4.010337 29.30135-6.684236 42.892903-8.020674a8968.729314 8968.729314 0 0 1-22.224164-51.133587h63.045895l8.054443-10.861372a14404.444858 14404.444858 0 0 0-12.212136-47.959292 731.936131 731.936131 0 0 0-9.988492-35.258015c-3.538593-11.362792-8.277524-23.590278-14.21884-36.679387-5.941316-13.091156-12.492522-24.592095-19.646456-34.506909l-8.380877-11.864212c6.225795-6.128581 13.881149-12.311397 22.965037-18.548448 9.082866-6.238075 23.87271-10.359952 44.372604-12.365632 20.496823-2.004657 40.443108-3.062755 59.833737-3.175319 19.390629-0.109494 38.267559 1.728364 56.628741 5.514597-7.216355-16.59905-11.577686-28.241204-13.077853-34.925441z m5.409197 108.61679l-10.420327-8.355295a1483.697797 1483.697797 0 0 1-4.967129 17.127076c-1.669012 5.624091-5.723352 16.903995-12.159947 33.838689-6.436596 16.932648-12.276604 31.582299-17.522072 43.947932l-19.338441-110.455671-6.327102-42.778293h-42.804898l8.65103 42.778293 4.095272 23.394826 25.423019 145.212266 6.211468 42.110073h42.803875l-7.481391-36.094056-8.746198-49.963948c12.548804 5.347798 20.357654 9.190313 23.421432 11.530614l7.40669 5.346775c8.057513-20.945031 15.217586-38.628786 21.485337-53.054333 6.268774-14.428617 9.599635-22.086018 9.998725-22.976294l9.333576-24.397667c-16.012695-8.688893-25.700335-14.427594-29.062919-17.210987z m205.712175 38.288025h-92.117001l-7.120164-31.689746h72.540129c-6.41306-34.624589-11.667737-56.982806-15.765055-67.075675-6.126534-15.022135-16.105816-22.768563-29.938869-23.239284-3.146667 0-9.80532 0.236384-19.975961 0.704035l-1.842974 11.443633c9.025561-0.352017 16.569374-0.528026 22.630416-0.528026 8.918114 0.352017 15.505136 6.689353 19.760043 19.014052 2.061962 6.452969 5.486968 22.35924 10.275018 47.709605h-61.178361c-4.659113-13.96813-11.230786-26.877137-19.712971-38.731116-11.159154-15.140839-25.517163-28.92989-43.076074-41.37227l-7.54893 8.80248c21.439288 15.960507 36.360116 30.632671 44.760436 44.0124 8.169053 13.380752 14.199397 28.520567 18.09103 45.421492 2.534729 11.148921 4.372587 19.657712 5.516644 25.527397h-48.767703l2.127453 12.147667h75.335803c-2.27174 8.331759-5.218862 15.783475-8.845459 22.358218l12.656251 4.40124c3.501754-7.277754 6.486738-16.196891 8.950859-26.759458h65.372893l-2.127453-12.146644z m70.303182-108.62293c-18.678408-5.51562-40.317241-9.975189-64.919568-13.380752l0.523932 11.97166c24.536836 3.053546 46.669926 7.334036 66.400293 12.851702l-2.004657-11.44261z m75.325569 1.936096c-4.030803-11.031241-14.144138-16.548908-30.340005-16.548908-4.080945 0-10.982122 0.176009-20.707624 0.528026l-0.64673 11.266601c10.869558-0.467651 17.992793-0.704035 21.373797-0.704035 9.787924 0 16.151865 3.405563 19.09387 10.21055 3.27458 7.394411 8.422833 30.80868 15.444761 70.244854h-44.223201c-7.80578-11.971659-16.999163-22.534226-27.574009-31.689747l-5.53097 9.331529c15.611559 13.96506 27.592428 31.160697 35.947724 51.582819l11.669783-1.23206c-2.583848-6.104021-5.123694-11.619642-7.617491-16.548908h51.565423c-8.076956-46.124504-14.227026-74.939783-18.455328-86.440721z m-52.454675 46.829561l10.283204 5.810333c8.008394-11.504008 14.096043-21.654182 18.262945-30.456663l-10.40293-6.514367c-4.069689 9.387811-10.116405 19.775392-18.143219 31.160697z m83.1907 71.829955h-41.426504l-2.433423-13.907754h-12.585642l2.433422 13.907754h-45.796023l-2.463098-14.083763h-12.585643l2.463098 14.083763h-41.426504l2.034332 11.619642h41.426505l2.588965 14.788821h12.584619l-2.588964-14.788821h45.796022l2.588965 14.788821h12.585643l-2.588965-14.788821h41.426505l-2.03331-11.619642zM298.23594 420.152385l3.753487 16.71059h-42.970674c-6.093788-10.807137-14.171768-24.732288-24.235984-41.776476 6.564509 0.222057 13.216 0.945535 19.958564 2.172479-0.065492-8.579399 0.138146-17.686824 0.606821-27.321252 0.468674-9.637498 2.37407-19.133779 5.714142-28.490891l3.574408-10.861372a345.867262 345.867262 0 0 1 7.584746 12.532431c2.304486 4.010337 5.0449 10.026354 8.221242 18.047028 3.172249 8.020674 6.614651 18.519796 10.325159 31.498388 3.708462 12.977569 6.198166 22.1423 7.468089 27.489075z"  horiz-adv-x="1024" />

    
    <glyph glyph-name="Pinkage" unicode="&#58984;" d="M754.411517 394.225899l-7.198959-41.125653h20.862143l7.198959 41.125653zM737.498312 297.609421h20.862144l7.700379 43.998073h-20.862144zM213.009883 372.31589h-23.357987l-3.362584-19.215644h23.357987zM511.031441 486.5844c-5.368264 0.282433-10.057053-1.050935-14.070461-4.005221-3.106758-2.273786-5.650697-5.369288-7.633864-9.289573-1.983167-3.921309-3.430122-7.670703-4.338818-11.250229-0.909719-3.580548-1.462305-6.903224-1.660826-9.972119-0.577145-5.228071-0.278339-9.801227 0.896416-13.721512 1.173732-3.920286 3.233648-6.818289 6.179746-8.692987 2.943029-1.874697 6.767124-2.585895 11.473309-2.130523 5.134951 0.340761 10.381441 2.27174 15.736403 5.796006 5.354961 3.521197 8.868995 11.988032 10.541077 25.397437 1.305739 10.680247 0.118704 17.924231-3.557012 21.732977-3.678786 3.804652-8.200776 5.851265-13.56597 6.135744zM500.596787 392.66331c-4.341888 1.304715-9.344832 0.596588-15.011902-2.130523-4.326539-2.160199-8.065699-5.314029-11.217482-9.459443-3.151783-4.149507-5.291516-8.948813-6.415107-14.403034-1.12666-5.455245-1.811252-9.204639-2.054799-11.251252-0.663102-4.430916-0.784876-9.318226-0.367366-14.658861 0.417509-5.342682 2.385327-9.744945 5.89629-13.20986 3.511987-3.467985 8.097422-5.143137 13.758352-5.028527 5.865591 0 10.974959 1.789763 15.32401 5.369288 4.350075 3.579525 7.909134 9.090029 10.680247 16.534581 2.772136 7.440459 4.244674 14.573927 4.424776 21.392216 0.031722 7.270591-1.38044 13.237489-4.231371 17.898649-2.849908 4.656043-6.445806 7.637957-10.785648 8.946766zM644.801097 364.953202h-51.529607l-5.40715-30.888498h51.528584zM591.252507 493.535719c3.578502 30.238698-1.355881 65.020876-46.859238 71.264067-57.650001 7.90811-71.264067-25.914206-71.264067-25.914206h-25.914206l6.478552 25.914206H291.730783l-20.360724-71.264067H26.112216v-291.532773h874.598318l97.17725 291.532773H591.252507z m-470.672756-63.572898c9.361205-8.979512 17.225313-18.379603 23.591301-28.195155l-10.728342-9.33767c-5.714142 9.456373-13.545504 19.035542-23.497157 28.733415l10.634198 8.79941z m-12.30935-43.818995c10.509355-9.221012 19.254529-18.676361 26.235524-28.374234l-10.728342-9.337669c-5.77861 9.097192-14.490016 18.735713-26.14138 28.912493l10.634198 8.79941zM83.241354 273.724431c13.883195 20.230764 26.867928 41.780569 38.953174 64.650439l10.478656-4.310166c-12.353352-23.704888-25.163099-45.614897-38.430265-65.72798l-11.001565 5.387707z m175.770236 98.591459h-35.304064l-3.362584-19.215644h29.777187l-12.010545-68.600401c-1.889023-10.775414-7.822153-16.163121-17.807574-16.163121h-14.799054l-1.197269 11.493775 14.168698-0.539282c4.753257 0 7.583722 2.575662 8.486278 7.721868l9.555634 54.593386h-18.186198a80.441077 80.441077 0 0 0-2.137687-9.158591c4.104481-7.78429 7.78736-15.264659 11.046591-22.448268l-7.424087-8.79941c-2.25946 8.140401-4.507664 15.32401-6.747681 21.549805-5.975085-15.802918-15.135722-30.110785-27.482935-42.920531l-7.059789 7.541766c15.506159 15.920598 25.207102 34.000372 29.106922 54.234206h-23.536043c-0.782829-3.113921-1.418302-5.387707-1.905396-6.823406 4.77577-8.022721 8.475022-14.7264 11.098779-20.114107l-7.424087-8.798387c-2.003634 6.222725-4.318352 12.687974-6.948249 19.394723-5.376451-13.050224-12.859889-24.90318-22.449291-35.556821l-7.237845 7.541767c12.213159 13.407358 20.267603 28.194132 24.168446 44.357254h-18.187221L142.260539 267.618363h-11.588942l14.965853 85.481883h29.955242l3.362584 19.215644h-37.086663l2.076288 11.852956H261.086855l-2.075265-11.852956z m2.953262 32.146141h-28.17162l-2.201131-12.571317H219.110835l2.201131 12.571317h-30.668486l-2.231831-12.750395h-12.481266l2.231831 12.750395h-26.746154l2.139733 12.212136h26.745131l2.482541 14.187117h12.481266l-2.482541-14.187117h30.668486l2.481518 14.187117h12.481266l-2.482541-14.187117h28.171619l-2.137686-12.212136z m162.070212 83.230609h-68.033489l-10.646478-45.341674c2.691295 2.498914 4.957919 4.318352 6.79373 5.455245 1.835811 1.134847 5.209652 2.527566 10.122545 4.176113 4.913916 1.6465 10.717086 2.243087 17.407462 1.789763 7.456832-0.569982 13.628392-2.700505 18.510586-6.392594 4.882194-3.694135 8.42488-8.751315 10.631128-15.170515 2.205225-6.421246 3.508917-13.950733 3.916192-22.585391 0.404206-8.636704 0.187265-17.445324-0.650822-26.420743-0.838088-8.977465-2.420119-18.182105-4.747118-27.612894a196.664102 196.664102 0 0 0-8.650007-25.227568c-3.482311-8.295943-7.605212-15.08558-12.364609-20.36891-4.762467-5.284353-11.060917-9.689686-18.899442-13.210883-7.837502-3.523243-16.712637-5.228071-26.618241-5.113461-6.319939 0-12.375865 0.852414-18.168801 2.557243-5.79703 1.703805-10.69969 4.628414-14.71105 8.77792-4.013407 4.146437-6.845918 8.749268-8.499582 13.807471-1.655709 5.055133-2.601244 10.595312-2.845814 16.618492-0.242524 6.022157-0.248663 11.30651-0.01535 15.85306l0.407276 15.852036h30.124088a798.516526 798.516526 0 0 1-1.020236-13.55062c-0.275269-4.15053-0.180102-8.609075 0.283456-13.381776 0.459464-4.7727 2.289136-8.66638 5.483898-11.675923 3.194762-3.01159 7.919367-4.546549 14.170744-4.602832 6.251378-0.058328 11.815093 1.902326 16.686031 5.880941 3.297093 2.727111 6.221702 6.702656 8.773827 11.93175 2.550079 5.226025 4.773723 11.647271 6.671956 19.261693 1.896186 7.611352 3.26537 14.148231 4.109598 19.602453 0.76748 5.681396 1.116427 11.703553 1.047866 18.068518-0.071631 6.362918-0.980327 11.476379-2.729158 15.341407-1.750877 3.861958-3.765767 6.843872-6.05081 8.948812-2.284019 2.101871-5.455245 3.15383-9.516747 3.15383-9.498328-0.11461-16.434298-3.979638-20.814048-11.592013l-7.55507-11.250228h-30.970362l25.808806 114.546849h97.481171l-4.923126-28.125571z m125.201514-59.830666c-3.241834-4.66116-6.184863-7.785314-8.832156-9.375532l-10.900258-7.15905c3.697205-2.727111 6.690376-5.284353 8.980535-7.670703 2.290159-2.38635 4.085038-5.342682 5.386684-8.863879 1.300622-3.524267 2.273786-7.303336 2.921539-11.335162 0.647753-4.034896 1.01512-7.414877 1.103124-10.141988 0.084934-2.727111-0.367367-7.414877-1.36202-14.062274s-2.309602-12.69923-3.940752-18.153452c-2.290159-7.27366-4.924149-13.294794-7.900947-18.067494-2.979868-4.7727-6.359848-9.093099-10.138918-12.955056-3.778046-3.864004-8.173147-7.388271-13.187347-10.568707-5.013177-3.181459-10.122545-5.28333-15.321964-6.306636-5.199419-1.022283-10.281157-1.533936-15.244192-1.533936-5.436826-0.113587-9.958816 0.170892-13.559831 0.852414-3.605108 0.681522-6.965645 1.789763-10.080589 3.324722-3.114944 1.533936-6.433526 4.00522-9.955746 7.414877s-6.882757 8.207939-10.084683 14.404058c-3.204995 6.192026-4.874007 13.095249-5.006014 20.710694-0.134053 7.611352 0.804319 16.192797 2.814092 25.738197 1.178849 5.455245 2.734274 10.623965 4.662183 15.511276 1.924839 4.885264 5.219885 10.168594 9.881045 15.852036 4.663206 5.681396 8.374738 9.317203 11.135618 10.909467l7.007601 4.262071c-2.483564 1.930979-4.574179 3.835352-6.277984 5.710048-1.702782 1.874697-3.210112 4.54348-4.52199 8.011465-1.310855 3.465938-2.665713 7.981788-4.059455 13.551644-1.39579 5.566786-0.867764 13.407358 1.581008 23.522739 1.549286 6.92983 4.355191 14.08888 8.411577 21.477151 4.056386 7.385201 8.249895 13.124925 12.577456 17.216103 4.325515 4.090155 9.226129 7.414877 14.694677 9.972119 5.468548 2.556219 11.30958 4.345981 17.524119 5.369288 6.213515 1.022283 12.356422 1.134847 18.422581 0.340761 6.15621-0.910743 11.449773-2.727111 15.881713-5.455246 4.431939-2.727111 8.321526-6.450922 11.669783-11.16427 3.347235-4.716418 5.428639-9.43386 6.238075-14.148232 0.809435-4.716418 1.020236-11.250228 0.629333-19.602453-0.391926-8.353248-1.603521-15.767102-3.638877-22.244631-1.76418-5.569856-4.266164-10.68434-7.50902-15.342429z m143.131884-147.672295c-3.852748-7.062859-9.971096-10.774391-18.35402-11.133571h-93.608981c-11.174504 0-15.872502 5.088902-14.087856 15.264659l16.191774 92.486414h77.205382l-9.555633-54.594409H585.792145l-5.817496-33.222659c-0.903579-5.14723 1.560542-7.722892 7.385201-7.722892h85.050048c4.201695 0.2415 7.365758 2.037403 9.500375 5.387707 1.788739 2.752694 4.15667 9.815553 7.098675 21.191648l11.4334-3.950985c-3.064802-11.377118-5.756097-19.276019-8.073886-23.705912z m-0.373507 47.768957c-3.560082-11.493775-11.520381-17.240663-23.88192-17.240663-2.13871 0-5.853311 0.179079-11.137664 0.539283l-0.986467 11.672853c6.335289-0.479931 10.453073-0.718361 12.356422-0.718361 5.942339 0 9.959839 3.591805 12.04943 10.775415 2.326998 7.18361 6.936993 29.451776 13.836123 66.805522h-93.251847c-11.656481-14.966876-23.953551-27.835975-36.894281-38.610367l-7.027044 10.775415c19.323091 15.32401 36.615942 35.676547 51.877531 61.058634l12.332886-2.873444c-3.203972-5.387707-6.984065-11.376095-11.347442-17.959024h99.491968c-7.944949-45.376467-13.751189-73.449849-17.417695-84.225263z m95.681177-53.335742l1.98112 11.313673h-54.203506l-1.98112-11.313673h-12.125156l23.01518 131.454937h32.986275l4.557806 26.040073h12.481266l-4.557806-26.040073h32.985252l-23.01518-131.454937h-12.124131z m108.241236 137.561005c-8.864902-19.394722-17.679661-36.814464-26.444279-52.258201 9.218966-17.959024 12.882402-32.6844 10.988262-44.177152-1.616824-9.221012-4.956895-15.744589-10.024307-19.574824-5.426593-3.833305-15.033391-5.746888-28.821419-5.746887l-1.447979 13.109575c5.006014-0.600681 8.876158-0.898463 11.611456-0.898463 6.240121 0.35918 10.341532 1.375324 12.30014 3.052523 1.978051 1.795902 3.456728 5.14723 4.435009 10.057053 1.810229 11.012821-2.15099 25.739221-11.879561 44.177152 8.522094 14.725376 17.092283 31.42778 25.711591 50.104141h-31.558763l-25.121144-143.487995h-12.30321l27.166733 155.160849h57.056483l-1.669012-9.517771zM770.840698 297.609421h20.862143l7.70038 43.998073H778.5421zM787.754926 394.225899l-7.198959-41.125653h20.86112l7.198959 41.125653z"  horiz-adv-x="1024" />

    
    <glyph glyph-name="r" unicode="&#58985;" d="M512.001535-80.071408c-255.895111 0-464.071408 208.179366-464.071408 464.071408S256.106424 848.071408 512.001535 848.071408c255.892041 0 464.068338-208.179366 464.068338-464.071408S767.893576-80.071408 512.001535-80.071408z m0 861.844854c-219.335451 0-397.776516-178.437995-397.776516-397.773446S292.666084-13.776516 512.001535-13.776516s397.773446 178.441065 397.773446 397.776516S731.336986 781.773446 512.001535 781.773446zM305.829895 325.68792l43.140543 50.327222 124.024711-106.306165L652.092154 588.089212l57.770751-32.500205-218.676441-388.774491-185.356569 158.873404z"  horiz-adv-x="1024" />

    
    <glyph glyph-name="search" unicode="&#58986;" d="M978.531947-12.321374L744.116033 222.050538c118.255311 152.87376 107.286492 374.107443-32.908504 514.298345C637.541763 810.064792 539.564287 850.626603 435.375344 850.626603c-104.192014 0-202.166419-40.561811-275.835256-114.27772-152.095024-152.091954-152.095024-399.569348 0-551.661301 76.032674-76.05928 175.949314-114.061802 275.835256-114.061802 84.23959 0 168.503738 27.03268 238.4416 81.125669l234.412844-234.378052 70.302159 70.305229zM229.841224 254.999974c-113.316835 113.309672-113.316835 297.737078 0 411.053913 54.896284 54.91675 127.883599 85.147262 205.533096 85.147263 77.646428 0 150.636812-30.230512 205.530027-85.147263 113.319905-113.316835 113.319905-297.744241 0-411.053913-113.348558-113.359814-297.712519-113.359814-411.063123 0z"  horiz-adv-x="1024" />

    
    <glyph glyph-name="select" unicode="&#58987;" d="M512.000512-50.114119c-239.762689 0-434.114119 194.368826-434.114119 434.115142 0 239.743246 194.35143 434.114119 434.114119 434.114119s434.114119-194.369849 434.114118-434.114119c-0.001023-239.747339-194.35143-434.115142-434.114118-434.115142zM493.397828 242.06436L357.941763 377.505076c-6.78452 6.786567-6.78452 17.770735 0 24.552185 6.782473 6.78759 17.770735 6.78759 24.553209 0l110.530373-110.542652L678.997943 482.93222c6.699586 6.866385 17.687848 7.051603 24.555256 0.338714 6.867408-6.682189 7.036253-17.670451 0.35611-24.558325L493.397828 242.06436z"  horiz-adv-x="1024" />

    
    <glyph glyph-name="sendthegoods" unicode="&#58988;" d="M856.261183 792.810826H167.738817c-62.730717 0-129.098263-44.861744-129.098263-107.581204v-86.065168h946.718892V685.229622c0 62.71946-66.367547 107.581204-129.098263 107.581204z m64.549132-129.098263H103.189685v21.516036c0 27.125801 15.896038 43.033096 43.033096 43.033096h731.555461c27.136034 0 43.033096-15.907295 43.033096-43.033096v-21.516036z m-21.516037-107.582227l0.565889-475.112882c0-27.14729-16.471137-41.279149-43.598984-41.279149H167.738817c-27.125801 0-43.601031 14.131859-43.60103 41.279149l0.567935 475.112882H60.15659l-0.567935-475.112882c0-62.74402 45.429679-105.82828 108.150162-105.82828h688.522366c62.72253 0 108.147092 43.084261 108.147092 105.82828l-0.565888 475.112882h-64.548109z m-387.293766 0V276.418796L633.059682 343.414653l115.620297-66.995857V556.130336h-64.549132v-172.130336l-51.071165 35.521005-56.510039-35.521005v172.130336h-64.549131z"  horiz-adv-x="1024" />

    
    <glyph glyph-name="service" unicode="&#58989;" d="M512.000512 840.907241c-252.343215 0-456.906218-204.566072-456.906218-456.908264s204.563002-456.906218 456.906218-456.906218c252.342192 0 456.906218 204.564026 456.906217 456.906218S764.34168 840.907241 512.000512 840.907241z m206.327182-677.981289h-412.689157l-4.206812 28.178783c0 76.210729 25.787316 119.201869 94.747921 167.984922 0 0 114.862028-104.266715 231.605915 0 69.010747-48.4075 94.748944-91.706655 94.748945-167.984922l-4.206812-28.178783zM381.533065 464.171947c0 70.350255 58.395992 127.368876 130.45005 127.368876 72.053036 0 130.448004-57.018621 130.448005-127.368876 0-70.342068-58.394968-127.363759-130.448005-127.363759-72.054059 0-130.450051 57.021691-130.45005 127.363759z m281.119608-48.892546V532.872632c1.64343 0 3.289929-0.067538 4.903684-0.200568-26.730805 57.878199-86.266759 98.18316-155.554822 98.18316-69.286016 0-128.821971-40.304961-155.552775-98.18316a59.788711 59.788711 0 0 0 4.903683 0.200568v-117.593231c-33.289174 0-60.260455 26.329668-60.260455 58.796104 0 22.053272 12.44545 41.266869 30.862915 51.331085 25.908066 72.77242 96.629781 125.037784 180.046632 125.037785 83.413781 0 154.146753-52.269457 180.053795-125.045971 18.413372-10.0591 30.852682-29.27372 30.852682-51.322899 0-32.466436-26.988678-58.796104-60.255339-58.796104z"  horiz-adv-x="1024" />

    
    <glyph glyph-name="shoppingcar" unicode="&#58990;" d="M281.607214 702.955332v-62.83407h628.342752c-4.191462-59.058071-9.113565-151.212934-20.99722-233.353722-12.199856-83.97353-115.083062-81.776492-125.615952-80.819701H269.983479l-73.853031 413.82912c-14.654768 82.47848-72.437799 90.780563-103.025445 88.847538H30.270932v-62.838164h62.834071c7.374968 0.236384 33.266661 7.433296 41.162492-37.009915l91.960434-515.034103c10.933003-46.654576 53.315276-139.131781 181.04845-139.131781h523.618618v62.834071H428.22141c-106.983593 0-138.637524 82.024132-140.478452 88.991823l-6.545066 36.676318h482.139925c5.154393-0.471744 15.052834 0 20.945031 0 59.570747 0 151.655002 29.995151 166.852122 134.635373 16.769942 115.89966 37.328164 273.617751 37.532825 275.191596l5.062296 30.015617H281.607214z m33.319873-668.49217c-26.325575 0-47.657416-21.347191-47.657416-47.670719 0-26.311249 21.331841-47.651276 47.657416-47.651277 26.313296 0 47.657416 21.341051 47.657417 47.651277 0 26.323529-21.345144 47.670719-47.657417 47.670719z m531.584034 0c-26.323529 0-47.676859-21.347191-47.676859-47.670719 0-26.311249 21.35333-47.651276 47.676859-47.651277 26.304086 0 47.638997 21.341051 47.638997 47.651277 0 26.323529-21.334911 47.670719-47.638997 47.670719z"  horiz-adv-x="1024" />

    
    <glyph glyph-name="shoppingcar-add" unicode="&#58991;" d="M511.999488 826.974927c-244.649999 0-442.974927-198.326974-442.974927-442.97288 0-244.649999 198.324928-442.976974 442.974927-442.976974 244.647953 0 442.974927 198.326974 442.974927 442.976974 0 244.645906-198.326974 442.97288-442.974927 442.97288zM724.62819 348.561883H547.437605v-177.189561h-70.876234V348.561883H299.37181v70.877257h177.189561V596.627678h70.876234v-177.188538h177.189562v-70.877257z"  horiz-adv-x="1024" />

    
    <glyph glyph-name="shoppingcar-del" unicode="&#58992;" d="M512.000512 857.808166c-261.676791 0-473.808166-212.131375-473.808166-473.806119 0-261.678838 212.131375-473.810213 473.808166-473.810213s473.808166 212.131375 473.808166 473.810213c-0.001023 261.674745-212.132398 473.806119-473.808166 473.806119zM739.428268 346.095715H284.571732v75.81164h454.855512v-75.81164z"  horiz-adv-x="1024" />

    
    <glyph glyph-name="shppingcara" unicode="&#58993;" d="M284.068266 678.392914v-60.2185h602.082668c-4.01443-56.588833-8.730848-144.901181-20.117177-223.621057-11.691273-80.471776-110.274546-78.370929-120.368438-77.450976H272.931624L202.164884 713.672418c-14.043854 79.049381-69.412906 87.005586-98.721419 85.143169H43.236222v-60.210313h60.208267c7.066953 0.229221 31.877011 7.117095 39.442314-35.471886l88.116896-493.554906c10.475586-44.711318 51.085492-133.324518 173.483147-133.324518h501.734192v60.20622H424.55388c-102.512768 0-132.842541 78.609359-134.60672 85.285408l-6.271844 35.148522h461.991026c4.937452-0.447185 14.423501 0 20.069081 0 57.081043 0 145.31869 28.736485 159.878291 129.016399 16.068977 111.068631 35.769668 262.206864 35.966143 263.71624l4.849448 28.766161h-682.361039z m31.927153-640.612193c-25.225521 0-45.666062-20.456914-45.666062-45.684482 0-25.209148 20.440541-45.666062 45.666062-45.666063 25.213241 0 45.666062 20.456914 45.666063 45.666063 0.001023 25.227568-20.451798 45.684482-45.666063 45.684482z m509.368057 0c-25.221428 0-45.684482-20.456914-45.684482-45.684482 0-25.209148 20.463054-45.666062 45.684482-45.666063 25.206078 0 45.648666 20.456914 45.648666 45.666063-0.001023 25.227568-20.443611 45.684482-45.648666 45.684482z"  horiz-adv-x="1024" />

    
    <glyph glyph-name="shppingcarb" unicode="&#58994;" d="M208.460264 678.392914l-6.29538 35.279504c-14.043854 79.049381-69.412906 87.005586-98.721419 85.143169H43.236222v-60.210313h60.208267c7.066953 0.229221 31.877011 7.117095 39.442314-35.471886l88.116896-493.554906c10.475586-44.711318 51.085492-133.324518 173.483147-133.324518h501.734192v60.20622H424.55388c-102.512768 0-132.842541 78.609359-134.60672 85.285408l-6.271844 35.148522h461.991026c4.937452-0.447185 14.423501 0 20.069081 0 57.081043 0 145.31869 28.736485 159.878291 129.016399 16.068977 111.068631 35.769668 262.206864 35.966143 263.71624l4.849448 28.766161H208.460264z m107.535155-640.612193c-25.225521 0-45.666062-20.456914-45.666062-45.684482 0-25.209148 20.440541-45.666062 45.666062-45.666063 25.213241 0 45.666062 20.456914 45.666063 45.666063 0.001023 25.227568-20.451798 45.684482-45.666063 45.684482z m509.368057 0c-25.221428 0-45.684482-20.456914-45.684482-45.684482 0-25.209148 20.463054-45.666062 45.684482-45.666063 25.206078 0 45.648666 20.456914 45.648666 45.666063-0.001023 25.227568-20.443611 45.684482-45.648666 45.684482z"  horiz-adv-x="1024" />

    
    <glyph glyph-name="store" unicode="&#58995;" d="M765.459131 329.570343c-45.098127 0-89.273233 13.505595-126.683261 38.426171-37.360909-24.920576-81.556481-38.426171-126.776382-38.426171-45.221948 0-89.415472 13.505595-126.775358 38.426171-37.412075-24.920576-81.585133-38.426171-126.685307-38.426171-96.028077 0-182.464705 60.648288-215.064171 150.971434l-5.565762 17.250896L208.163505 791.622768h607.66992L986.089064 497.791649l-5.194303-16.164144c-32.970926-91.408873-119.407554-152.057161-215.43563-152.057162zM638.703215 444.609403l19.313881-15.942087c30.195719-25.101701 68.361971-38.910195 107.441011-38.910195 67.343781 0 128.297015 40.48097 154.705478 101.774964L781.151531 731.43599H242.846422l-139.013077-239.924371c26.338878-61.213153 87.302345-101.754498 154.705478-101.754498 39.081087 0 77.245292 13.808494 107.441011 38.910195l19.254529 15.983019 19.283182-16.042371c30.133298-25.062815 68.299549-38.850843 107.481943-38.850843 39.180348 0 77.346599 13.788028 107.479897 38.850843l19.22383 16.001439zM726.631824-23.622768H297.370223c-82.390475 0-149.412938 67.032696-149.412938 149.400659V298.691055h60.188824V125.777891c0-49.196469 40.025599-89.213881 89.224114-89.213881h429.261601c49.196469 0 89.224114 40.017412 89.224114 89.213881V298.691055h60.186777V125.777891c0-82.367963-67.022463-149.400658-149.410891-149.400659z"  horiz-adv-x="1024" />

    
    <glyph glyph-name="time" unicode="&#58996;" d="M512.000512-67.677123c-249.058402 0-451.677123 202.618721-451.677123 451.677123s202.618721 451.677123 451.677123 451.677123 451.677123-202.618721 451.677123-451.677123-202.618721-451.677123-451.677123-451.677123z m0 838.82865c-213.488279 0-387.151527-173.664272-387.151528-387.151527s173.664272-387.151527 387.151528-387.151527 387.151527 173.664272 387.151527 387.151527-173.664272 387.151527-387.151527 387.151527zM628.697327 384.064468h-96.788393V609.90303c0 17.818831-14.443967 32.262798-32.262798 32.262798s-32.262798-14.443967-32.262798-32.262798v-258.10136c0-17.818831 14.443967-32.262798 32.262798-32.262797h129.050168c17.815761 0 32.262798 14.443967 32.262798 32.262797s-14.447037 32.262798-32.261775 32.262798z"  horiz-adv-x="1024" />

    
    <glyph glyph-name="to" unicode="&#58997;" d="M712.686207 433.796126l-0.002047-0.001023L311.313793 807.339728l-53.514821-49.811476 401.370367-373.535415-401.370367-373.524159 53.514821-49.808406L766.201028 383.98772z"  horiz-adv-x="1024" />

    
    <glyph glyph-name="unfold" unicode="&#58998;" d="M191.797769 551.336146l301.363676-339.033623 339.037716 339.033623h150.681838L493.161445 23.952784 41.119001 551.336146h150.678768z"  horiz-adv-x="1024" />

    
    <glyph glyph-name="unselect" unicode="&#58999;" d="M512.000512-50.114119c-239.373833 0-434.114119 194.740286-434.114119 434.114119S272.625656 818.114119 512.000512 818.114119s434.114119-194.740286 434.114118-434.114119-194.740286-434.114119-434.114118-434.114119z m0 819.083957c-212.273614 0-384.969838-172.695201-384.969839-384.969838s172.695201-384.969838 384.969839-384.969838S896.969327 171.726386 896.969327 384 724.274126 768.969838 512.000512 768.969838z"  horiz-adv-x="1024" />

    
    <glyph glyph-name="up" unicode="&#59000;" d="M977.289654 131.917728L512.000512 597.207893 46.710346 131.917728h930.579308z"  horiz-adv-x="1024" />

    
    <glyph glyph-name="waitforreceiving" unicode="&#59001;" d="M705.690886 276.394237c-75.892481 0-138.668223-56.122205-149.11311-129.126916H445.899024c-10.443863 73.003687-73.218582 129.126916-149.111062 129.126916-83.200934 0-150.644999-67.447135-150.644999-150.647046s67.445088-150.647045 150.644999-150.647045c68.242244 0 125.875872 45.379537 144.396691 107.605763h120.106472c18.521842-62.226227 76.156494-107.605763 144.398737-107.605763 83.197864 0 150.644999 67.447135 150.644999 150.647045s-67.446112 150.647045-150.643975 150.647046z m-408.902924-236.731656c-47.541783 0-86.084611 38.541805-86.084611 86.08461s38.541805 86.084611 86.084611 86.084611c47.544853 0 86.084611-38.541805 86.08461-86.084611s-38.539758-86.084611-86.08461-86.08461z m408.902924 0c-47.543829 0-86.086657 38.541805-86.086658 86.08461s38.541805 86.084611 86.086658 86.084611c47.541783 0 86.082564-38.541805 86.082564-86.084611s-38.540781-86.084611-86.082564-86.08461z m193.687304 753.238296H598.085122v-64.563458h301.293068c15.174608 0 25.965371-9.867742 25.965371-22.771633l-4.444219-235.481175H985.464847v236.731656c0 33.900088-33.93181 86.084611-86.086657 86.08461z m-387.379725 0h-236.731656c-61.916165 0-236.731656-234.380098-236.731656-279.773961v-344.337419h64.563458V513.126916c11.159154 38.711673 136.89381 195.792245 172.168198 215.210503h172.168198v-365.447203l473.463312-0.411369v-215.210503H985.464847V427.042305l-473.466382 0.411369V792.900877z"  horiz-adv-x="1024" />

    
    <glyph glyph-name="WeChatPay" unicode="&#59002;" d="M386.208551 275.812999c-14.765285-7.383154-32.939203-2.27174-40.889269 12.493545l-2.27174 4.54348-84.050278 184.570669c-1.13587 2.27174-1.703805 3.975545-1.703805 6.247284 0 8.519024 6.815219 15.33322 15.33322 15.33322 3.40761 0 6.815219-1.13587 9.086959-2.839675l99.384521-70.420862c11.92561-7.951089 27.259854-9.654894 40.88927-4.54348l467.956901 207.854979C805.893029 727.867722 667.890978 792.042323 511.716033 792.042323c-254.991532 0.566912-462.277552-172.077124-462.277552-385.042493 0-115.853611 62.469773-220.916459 159.582555-291.337321 7.951089-5.679349 13.06148-15.33322 13.06148-24.988114 0-3.40761-0.567935-6.815219-1.703805-10.222829l-21.012569-77.802994c-1.13587-3.40761-2.27174-7.383154-2.27174-11.357675 0-8.519024 6.815219-15.33322 15.33322-15.33322 3.40761 0 6.247284 1.13587 9.086959 2.839674l101.087303 58.494229c7.383154 4.54348 15.901155 6.815219 24.420179 7.383155 4.54348 0 9.086959-0.567935 13.629415-2.27174C410.059771 28.205645 460.603935 21.390425 511.715009 21.390425c255.559467 0 462.845487 172.644035 462.845487 385.610428 0 63.605643-18.74083 125.507482-52.815903 178.89132L389.047202 278.084739l-2.838651-2.27174z"  horiz-adv-x="1024" />

    
    <glyph glyph-name="xxx" unicode="&#59003;" d="M885.798916 792.747381C856.158852 822.387445 817.330522 837.211059 778.502192 837.211059c-38.818097 0-77.648474-14.823614-107.26091-44.463678l-159.305239-159.328775-159.258167 159.328775C323.073628 822.387445 284.264741 837.211059 245.446643 837.211059s-77.631078-14.823614-107.231233-44.463678c-59.242266-59.214636-59.242266-155.268296 0-214.610846L404.71402 311.58983c30.883381-30.913057 70.212108-44.51075 107.222023-44.51075 16.155958 0 32.070416 2.51631 47.236838 7.471159 18.921955 6.149047 36.676317 16.111956 52.290947 29.79049a155.985634 155.985634 0 0 1 7.76894 7.249101l266.567172 266.546705c59.223846 59.343573 59.223846 155.396209-0.001024 214.610846zM404.733463 526.243655c-12.951987-12.993942-23.068392-27.741831-30.352285-43.473117a151.730727 151.730727 0 0 1-12.793375-44.442189l-181.544752 181.578522c-36.122709 36.180014-36.142152 94.953605-0.008187 131.072221 17.469883 17.494443 40.694841 27.119661 65.409733 27.119661s47.937802-9.626241 65.430198-27.151383L470.138078 591.622688l-51.431369-51.429323-13.973246-13.94971zM602.779028 401.177218c-3.39533-17.531282-11.866259-34.267455-25.423019-47.829332a97.488335 97.488335 0 0 0-4.097318-3.868097c-13.134135-11.648294-29.018917-19.196201-46.100968-22.016433a96.534614 96.534614 0 0 0-15.154141-1.200338c-14.286378 0-41.791825 3.540639-65.477271 27.230178-25.89681 25.89681-33.169447 63.535035-21.862937 96.059799 4.433986 12.734022 11.714809 24.684192 21.843494 34.840506l13.934361 13.933337 51.55212 51.469232 65.391312-65.346287c22.551622-22.614044 31.017434-54.05922 25.394367-83.272565z m241.228063 218.767515L662.41015 438.358025c-4.125971 32.109302-18.492166 63.170738-43.120077 87.886653l-65.525365 65.401546 159.288866 159.316495c17.480116 17.492396 40.723493 27.137057 65.449641 27.137057 24.731264 0 47.997154-9.645684 65.504899-27.157523 36.086893-36.081777 36.066427-94.855368-0.001023-130.99752zM511.955486 234.167506c-83.757612 0-151.670352-67.916832-151.670351-151.691841 0-83.764775 67.912739-151.687748 151.670351-151.687747 83.762729 0 151.675468 67.922972 151.675468 151.687747 0 83.775009-67.912739 151.691841-151.675468 151.691841z m0-244.261143c-51.039443 0-92.561116 41.527812-92.561115 92.569302 0 51.051723 41.521672 92.573395 92.561115 92.573396 51.045583 0 92.567255-41.521672 92.567256-92.573396 0-51.04149-41.521672-92.569302-92.567256-92.569302z"  horiz-adv-x="1024" />

    
    <glyph glyph-name="xxx" unicode="&#59004;" d="M404.711973 311.591877c30.871101-30.900777 70.200852-44.51075 107.209744-44.51075 39.742143 0 78.023004 15.225773 107.298772 44.51075 59.184961 59.240219 59.184961 155.264203 0 214.610846L511.921717 633.420653 404.711973 526.202723c-59.185984-59.346643-59.185984-155.370627 0-214.610846z m481.065454 481.07364c-59.184961 59.392692-155.372673 59.392692-214.538191 0L541.583271 663.011598l107.269095-107.273189c43.290969-43.505863 61.696154-102.46672 55.212486-159.140486l181.711552 181.504843c59.177797 59.409065 59.177797 155.397233 0.001023 214.562751zM375.146611 555.738409L482.417753 662.81103 352.559173 792.665517c-59.177797 59.392692-155.151639 59.392692-214.337623 0-59.175751-59.165518-59.175751-155.153686 0-214.561727l181.713598-181.723832c-6.484691 56.666604 11.929704 115.852588 55.211463 159.358451z m136.775106-321.53918c-83.764775 0-151.646815-67.87897-151.646815-151.721517 0-83.802638 67.881017-151.687748 151.646815-151.687748 83.787288 0 151.707191 67.88511 151.707191 151.687748 0 83.842547-67.920926 151.721517-151.707191 151.721517z"  horiz-adv-x="1024" />

    
    <glyph glyph-name="add" unicode="&#59005;" d="M512.000512 851.650933c258.277368 0 467.650933-209.374588 467.650932-467.650933 0-258.277368-209.373565-467.650933-467.650932-467.650933-258.276345 0-467.650933 209.373565-467.650933 467.650933 0 258.276345 209.374588 467.650933 467.650933 467.650933zM691.499675 317.23234c12.447497 86.046748 22.711258 148.922774 22.711258 148.922775H372.952642v-37.916565l295.478642-0.284479c-3.406586-25.704428-9.31925-69.781296-14.453177-105.285928-5.036713-34.660404-49.177026-33.851992-53.519938-33.461089H376.061446l-33.471322 187.477882c-7.29515 41.063231-42.373063 53.511751-58.111512 52.667523h-25.278734v-37.917588h25.278734s17.355273-2.097778 20.785395-21.390169l42.547025-238.213404c5.331425-22.74912 26.499537-69.016887 88.337931-69.016886h240.145405v37.917588H436.148963c-45.853327 0-50.495044 36.190247-51.210335 38.751582l-2.108011 11.805884h230.267431c29.054733 0 70.947865 14.534018 78.401627 65.942874zM410.87023 150.175557c-13.960966 0-25.279756-11.31879-25.279756-25.278733 0-13.960966 11.31879-25.279756 25.279756-25.279756s25.278733 11.31879 25.278733 25.279756-11.317767 25.278733-25.278733 25.278733z m227.505527 0c-13.960966 0-25.278733-11.31879-25.278733-25.278733 0-13.960966 11.316743-25.279756 25.278733-25.279756s25.278733 11.31879 25.278733 25.279756-11.316743 25.278733-25.278733 25.278733z m-20.069081 421.345304l-26.808576 26.808576-44.441165-44.440142 2.845815 114.492614h-37.917588l-2.902096-116.76947-46.716998 46.715974-26.808576-26.808575 91.375104-91.374081 91.37408 91.375104z"  horiz-adv-x="1024" />

    
    <glyph glyph-name="Alipay" unicode="&#59006;" d="M975.557196 216.604502l-298.222125 100.282984s22.920012 34.30327 47.38624 101.570304 27.967982 104.19713 27.967982 104.19713l-193.045691 1.596358v65.928548l233.787604 1.648546v46.613644H559.592436V744.544543H445.093682v-106.10355H226.963687v-46.613644l218.129995 1.545192v-70.718644H270.125719v-36.930098h360.133173s-3.966335-29.976732-17.769712-67.267033c-13.803377-37.290301-28.019147-69.946049-28.019147-69.946048s-169.095209 59.180867-258.201643 59.180867-197.475584-35.795251-207.982892-139.684366c-10.456143-103.836927 50.476625-160.081928 136.337132-180.787506 85.86153-20.808932 165.129898 0.205685 234.147808 33.994232 69.018933 33.736359 136.749524 110.430088 136.749523 110.430088l347.564927-168.786171c-14.177907-82.349543-85.637426-142.497435-169.198563-142.41557H220.113675c-94.725408-0.084934-171.585937 76.635401-171.670871 171.361833V675.886837c-0.084934 94.725408 76.635401 171.585937 171.361832 171.670871h584.082712c94.725408 0.084934 171.585937-76.635401 171.670872-171.361833v-459.591373z m-434.19803 57.944714S434.173982 144.031627 307.880601 144.031627c-126.34557 0-152.87069 62.013379-152.87069 106.618272 0 44.552705 26.26827 93.02058 133.762493 100.025111 107.442034 7.004531 252.638951-76.126818 252.638951-76.126818h-0.052189z"  horiz-adv-x="1024" />

    
    <glyph glyph-name="backtotop" unicode="&#59007;" d="M938.464393 357.984487l-411.683247 411.676083h411.327137V842.732819H85.535607v-73.072249h423.338704L96.597547 357.377666l51.67287-51.66059 327.012845 327.010799v-715.65226h73.077365V645.066901l338.597695-338.599742 51.506071 51.517328z m-412.385235 411.676083l-7.490601-7.491625-7.492648 7.491625h14.983249z"  horiz-adv-x="1024" />

    
    <glyph glyph-name="box" unicode="&#59008;" d="M525.685185-96.500589L86.05647 155.374976V612.29859L511.999488 864.500589 937.94353 612.29859v-456.235952L525.685185-96.500589z m-369.020588 292.798603l367.816157-210.732515 342.855672 210.044853V572.048887L511.999488 782.443711 156.664597 572.048887v-375.750873zM525.685185 311.677834L103.809809 553.383782l35.100426 61.265342 385.570519-220.904179L884.197442 614.120075l36.885072-60.208267zM489.778394 352.71139h70.608128v-408.179447h-70.608128z"  horiz-adv-x="1024" />

    
    <glyph glyph-name="classifya" unicode="&#59009;" d="M391.202285 278.471548v-256.495792H134.707516V278.471548h256.494769m21.642926 64.468291H113.06459c-23.652699 0-42.825364-19.172665-42.825364-42.825365v-299.78062c0-23.652699 19.172665-42.825364 42.825364-42.825365h299.780621c23.650653 0 42.825364 19.172665 42.825364 42.825365V300.113451c0 23.652699-19.174712 42.826388-42.825364 42.826388zM391.202285 749.55465v-256.492722H134.707516V749.55465h256.494769m21.642926 64.46829H113.06459c-23.652699 0-42.825364-19.172665-42.825364-42.823317v-299.782668c0-23.650653 19.172665-42.823318 42.825364-42.823317h299.780621c23.650653 0 42.825364 19.172665 42.825364 42.823317V771.199623c0 23.64963-19.174712 42.823318-42.825364 42.823317zM734.038514 331.594443l181.368744-181.368744L734.038514-31.145092l-181.368744 181.370791L734.038514 331.594443m-0.001023 73.432453c-10.959609 0-21.919219-4.181229-30.281677-12.542664L491.778958 180.507376c-16.72594-16.72594-16.72594-43.842531 0-60.564377l211.976856-211.978903c8.361435-8.361435 19.321044-12.542664 30.281677-12.542664 10.959609 0 21.920242 4.181229 30.2827 12.542664l211.976856 211.978903c16.723893 16.720823 16.723893 43.838438 0 60.564377L764.320191 392.484232c-8.362458 8.362458-19.323091 12.542664-30.2827 12.542664zM862.285387 749.55465v-256.492722H605.790618V749.55465h256.494769m21.642926 64.46829H584.147692c-23.652699 0-42.825364-19.172665-42.825365-42.823317v-299.782668c0-23.650653 19.172665-42.823318 42.825365-42.823317h299.780621c23.652699 0 42.825364 19.172665 42.825364 42.823317V771.199623c0 23.64963-19.172665 42.823318-42.825364 42.823317z"  horiz-adv-x="1024" />

    
    <glyph glyph-name="classifyb" unicode="&#59010;" d="M113.06459-10.258389c-5.841032 0-10.592242 4.752234-10.592242 10.592243V300.114474c0 5.840008 4.751211 10.592242 10.592242 10.592243h299.780621c5.840008 0 10.591219-4.752234 10.591219-10.592243v-299.78062c0-5.840008-4.751211-10.592242-10.591219-10.592243H113.06459zM391.202285 278.471548v-256.495792H134.707516V278.471548h256.494769m21.642926 64.468291H113.06459c-23.652699 0-42.825364-19.172665-42.825364-42.825365v-299.78062c0-23.652699 19.172665-42.825364 42.825364-42.825365h299.780621c23.650653 0 42.825364 19.172665 42.825364 42.825365V300.113451c0 23.652699-19.174712 42.826388-42.825364 42.826388zM113.06459 460.827783c-5.841032 0-10.592242 4.750187-10.592242 10.589172V771.199623c0 5.838985 4.751211 10.590196 10.592242 10.590196h299.780621c5.840008 0 10.591219-4.751211 10.591219-10.590196v-299.782668c0-5.838985-4.751211-10.589173-10.591219-10.589172H113.06459zM391.202285 749.55465v-256.492722H134.707516V749.55465h256.494769m21.642926 64.46829H113.06459c-23.652699 0-42.825364-19.172665-42.825364-42.823317v-299.782668c0-23.650653 19.172665-42.823318 42.825364-42.823317h299.780621c23.650653 0 42.825364 19.172665 42.825364 42.823317V771.199623c0 23.64963-19.174712 42.823318-42.825364 42.823317zM734.037491-72.343399c-1.639337 0-4.790096 0.403183-7.488555 3.100618L514.57208 142.737144c-2.700505 2.700505-3.103688 5.850242-3.103688 7.487532s0.403183 4.79112 3.103688 7.490601L726.547913 369.692133c2.699482 2.698458 5.850242 3.100618 7.488554 3.100618s4.79112-0.403183 7.490602-3.102665l211.977879-211.974809c2.698458-2.699482 3.100618-5.852288 3.100617-7.490601s-0.403183-4.789073-3.098571-7.485485L741.526045-69.242781c-2.698458-2.698458-5.850242-3.100618-7.488554-3.100618zM734.038514 331.594443l181.368744-181.368744L734.038514-31.145092l-181.368744 181.370791L734.038514 331.594443m-0.001023 73.432453c-10.959609 0-21.919219-4.181229-30.281677-12.542664L491.778958 180.507376c-16.72594-16.72594-16.72594-43.842531 0-60.564377l211.976856-211.978903c8.361435-8.361435 19.321044-12.542664 30.281677-12.542664 10.959609 0 21.920242 4.181229 30.2827 12.542664l211.976856 211.978903c16.723893 16.720823 16.723893 43.838438 0 60.564377L764.320191 392.484232c-8.362458 8.362458-19.323091 12.542664-30.2827 12.542664zM584.147692 460.827783c-5.840008 0-10.592242 4.750187-10.592243 10.589172V771.199623c0 5.838985 4.752234 10.590196 10.592243 10.590196h299.780621c5.840008 0 10.591219-4.751211 10.591219-10.590196v-299.782668c0-5.838985-4.751211-10.589173-10.591219-10.589172H584.147692zM862.285387 749.55465v-256.492722H605.790618V749.55465h256.494769m21.642926 64.46829H584.147692c-23.652699 0-42.825364-19.172665-42.825365-42.823317v-299.782668c0-23.650653 19.173688-42.823318 42.825365-42.823317h299.780621c23.652699 0 42.825364 19.172665 42.825364 42.823317V771.199623c0 23.64963-19.172665 42.823318-42.825364 42.823317z"  horiz-adv-x="1024" />

    
    <glyph glyph-name="co" unicode="&#58898;" d="M814.994304 520.864195c-16.065554 16.065554-37.145198 24.149495-58.224843 24.149495h-29.061257v85.546518c0 117.984611-95.984011 213.968622-213.968622 213.968622s-213.968622-95.984011-213.968622-213.968622V545.01369h-33.052063c-20.977316 0-41.852303-7.981613-57.815529-23.944838-15.963226-15.963226-23.944839-36.940542-23.944839-57.917858v-389.564105c0-82.88598 67.127411-150.013391 150.013391-150.01339h354.05616c82.88598 0 150.013391 67.127411 150.013391 150.01339V462.741681c0 21.079644-7.981613 42.05696-24.047167 58.122514zM364.135505 630.560208c0 82.578995 67.127411 149.706406 149.706406 149.706405 82.578995 0 149.706406-67.127411 149.706405-149.706405V545.01369H364.135505v85.546518z m410.64375-556.973319c0-47.275707-38.475467-85.751174-85.751175-85.751174h-354.05616c-47.275707 0-85.751174 38.475467-85.751175 85.751174V463.150994c0 3.376836 0.920955 8.18627 5.218747 12.381733 4.195463 4.297792 9.107225 5.116419 12.381733 5.116419h489.948236c2.762866 0 8.18627-0.716299 12.688718-5.321076 4.40012-4.40012 5.321075-9.311882 5.321076-12.688718v-389.052463z m-294.910363 97.31428h64.262216V347.315279h-64.262216v-176.41411z"  horiz-adv-x="1024" />

    
    <glyph glyph-name="num" unicode="&#58899;" d="M732.619966 873.180773H291.380034c-52.801439 0-95.677026-42.875587-95.677026-95.677026v-786.905166c0-52.801439 42.875587-95.677026 95.677026-95.677026h441.239932c52.801439 0 95.677026 42.875587 95.677026 95.677026v786.905166c0 52.699111-42.875587 95.677026-95.677026 95.677026z m30.493854-882.582192c0-16.781853-13.712002-30.493854-30.493854-30.493854H291.380034c-16.781853 0-30.493854 13.712002-30.493854 30.493854v786.905166c0 16.781853 13.712002 30.493854 30.493854 30.493855h441.239932c16.781853 0 30.493854-13.712002 30.493854-30.493855v-786.905166zM301.715199 633.016089h420.67193v43.489557H301.715199V633.016089z m0-541.419407h420.67193v43.489558H301.715199v-43.489558zM512 64.070351c-20.363346 0-36.838213-16.474868-36.838213-36.838213s16.474868-36.838213 36.838213-36.838214 36.838213 16.474868 36.838213 36.838214-16.474868 36.838213-36.838213 36.838213z"  horiz-adv-x="1024" />

    
    <glyph glyph-name="close" unicode="&#58900;" d="M948.839812 791.727391l-38.884781 38.782452-407.676226-407.676227L114.044969 811.067453l-38.884781-38.782453 388.336165-388.336164L75.160188-4.285l38.884781-38.782453 388.233836 388.233837 407.676226-407.676227 38.884781 38.782452-407.676227 407.676227z"  horiz-adv-x="1024" />

    


  </font>
</defs>
</svg>
